<?xml version="1.0" standalone="no"?>
<!DOCTYPE svg PUBLIC "-//W3C//DTD SVG 20010904//EN"
 "http://www.w3.org/TR/2001/REC-SVG-20010904/DTD/svg10.dtd">
<svg version="1.0" xmlns="http://www.w3.org/2000/svg"
 width="389.000000pt" height="570.000000pt" viewBox="0 0 389.000000 570.000000"
 preserveAspectRatio="xMidYMid meet">
<metadata>
Created by potrace 1.16, written by Peter Selinger 2001-2019
</metadata>
<g transform="translate(0.000000,570.000000) scale(0.100000,-0.100000)"
fill="#000000" stroke="none">
<path d="M3145 5676 c-43 -19 -70 -52 -114 -137 -21 -41 -55 -101 -76 -133
-39 -62 -114 -216 -145 -301 -43 -115 -62 -312 -40 -408 5 -23 19 -85 30 -137
12 -52 33 -117 47 -145 66 -133 202 -284 373 -415 101 -77 156 -139 192 -216
75 -161 35 -304 -158 -554 -72 -94 -78 -101 -189 -243 -103 -133 -140 -192
-191 -310 -70 -159 -92 -241 -109 -408 -37 -352 18 -558 248 -939 118 -195
191 -362 203 -465 8 -64 -15 -118 -60 -147 -40 -25 -133 -20 -196 12 -68 33
-140 84 -140 98 0 6 -6 12 -12 12 -7 0 -74 62 -148 138 -146 150 -254 227
-360 259 -30 9 -71 23 -90 32 -27 12 -64 15 -159 13 -216 -3 -318 -42 -495
-192 -79 -67 -156 -150 -322 -350 -98 -119 -155 -180 -168 -180 -4 0 -25 -13
-45 -29 -49 -39 -170 -101 -198 -101 -12 0 -34 -5 -49 -10 -62 -24 -271 29
-311 78 -8 9 -26 41 -40 71 -21 44 -25 63 -20 110 5 58 42 161 58 161 5 0 9 9
9 19 0 11 5 23 10 26 6 4 19 23 30 44 10 21 45 65 78 97 154 155 285 387 378
669 64 196 76 294 78 625 1 283 1 285 26 328 43 76 127 106 186 67 28 -18 64
-92 109 -220 64 -184 134 -293 242 -374 211 -159 472 -108 574 112 29 64 33
81 31 152 0 47 -9 108 -21 150 -28 94 -27 169 2 222 12 22 64 84 115 137 50
53 92 101 92 107 0 6 13 30 28 53 28 42 41 82 89 271 20 81 27 136 28 208 0
90 -2 100 -22 117 -12 9 -19 20 -16 24 4 3 0 6 -8 6 -19 0 -59 -37 -59 -53 1
-12 -72 -243 -113 -360 -23 -68 -81 -145 -154 -208 -28 -24 -52 -50 -52 -56
-1 -7 -7 -13 -13 -13 -17 0 -82 -88 -112 -153 -28 -58 -56 -168 -62 -237 -1
-25 4 -73 12 -108 29 -127 11 -172 -66 -172 -54 0 -108 37 -158 109 -33 46
-49 87 -82 207 -50 179 -81 237 -178 331 -91 89 -149 112 -295 120 -78 5 -106
2 -145 -12 -100 -37 -204 -141 -270 -270 -50 -99 -56 -161 -66 -655 -2 -143
-7 -195 -20 -230 -9 -25 -33 -98 -52 -164 -40 -137 -97 -256 -162 -341 -57
-75 -198 -234 -263 -298 -59 -58 -78 -93 -136 -256 l-45 -126 5 -110 c10 -212
22 -239 164 -380 103 -103 161 -137 328 -191 l120 -39 175 0 175 0 125 62
c147 74 254 157 384 298 107 116 160 181 211 258 99 151 206 225 336 235 57 4
75 1 122 -21 62 -28 103 -66 230 -215 48 -56 107 -117 131 -135 24 -17 67 -51
97 -74 114 -87 255 -143 395 -158 75 -7 256 17 262 35 2 6 10 10 17 10 17 0
114 51 144 76 69 56 151 159 151 189 0 8 4 15 9 15 5 0 19 33 32 73 19 59 23
94 24 192 0 208 -37 307 -252 678 -148 255 -183 349 -190 517 -8 172 17 287
99 458 26 54 220 326 267 373 9 9 34 43 56 75 22 31 48 66 58 76 9 10 17 22
17 27 0 4 8 19 18 32 34 44 113 227 134 311 32 123 32 341 0 456 -40 149 -111
262 -239 382 -87 81 -172 150 -185 150 -17 0 -139 89 -191 139 -27 25 -60 69
-75 96 -25 47 -26 57 -25 185 1 77 8 163 16 200 17 76 67 262 73 271 2 3 15
63 28 132 24 117 24 129 11 175 -10 32 -27 60 -46 76 -35 30 -34 30 -74 12z"/>
</g>
</svg>
